<svg width="1520" height="1200" viewBox="0 0 1520 1200" fill="none" xmlns="http://www.w3.org/2000/svg">
<path fill-rule="evenodd" clip-rule="evenodd" d="M513 0.45802C238 0.83902 10.075 1.51602 6.5 1.96302L0 2.77601L0.14502 6.00197C0.23802 8.08896 1.98605 11.618 5.09705 16.002C10.835 24.088 13.5669 27.062 37.1899 50.934C47.1939 61.044 57.5439 71.881 60.1899 75.015C62.8349 78.149 70.175 85.975 76.5 92.406C109.628 126.09 125.736 142.608 132.5 149.832C151.44 170.06 155.353 174.319 160.5 180.306C165.755 186.418 168.681 189.592 189.063 211.291C193.978 216.524 200.025 223.009 202.5 225.702C204.975 228.395 209.025 232.74 211.5 235.357C213.975 237.975 220.948 245.44 226.995 251.947C233.043 258.453 246.362 272.326 256.593 282.776C266.824 293.226 279.426 306.24 284.597 311.697C289.769 317.153 296.025 323.718 298.5 326.285C300.975 328.852 308.175 336.495 314.5 343.268C320.825 350.042 328.25 357.893 331 360.714C333.75 363.536 345.45 375.721 357 387.792C368.55 399.863 379.119 410.647 380.487 411.757C383.421 414.14 391.612 422.484 396.358 427.926C398.205 430.043 402.48 434.715 405.858 438.308C409.236 441.901 416.79 450.001 422.644 456.308C428.498 462.615 439.523 474.136 447.144 481.91C454.765 489.683 464.814 500.033 469.476 504.91C474.138 509.786 485.163 521.205 493.976 530.285C511.448 548.287 523.715 561.684 524.5 563.622C524.775 564.301 526.163 566.413 527.584 568.316C535.489 578.9 539.738 605.718 536.053 621.776C534.682 627.751 531.441 636.067 528.259 641.776C527.339 643.426 525.684 646.687 524.58 649.022C523.477 651.358 520.616 656.308 518.224 660.022C515.831 663.737 512.552 669 510.937 671.718C506.142 679.786 504.305 682.556 498 691.221C494.7 695.757 491.325 700.494 490.5 701.749C489.675 703.004 487.2 706.598 485 709.735C482.8 712.873 480.554 716.191 480.009 717.108C479.463 718.025 476.426 722.452 473.259 726.945C470.091 731.438 467.5 735.459 467.5 735.88C467.5 736.302 466.649 737.576 465.609 738.712C463.622 740.881 456.303 751.382 443.96 769.776C439.9 775.826 433.874 784.601 430.569 789.276C427.264 793.951 423.81 799.126 422.893 800.776C421.976 802.426 419.938 805.416 418.363 807.42C416.788 809.424 415.5 811.328 415.5 811.65C415.5 812.451 408.895 822.721 407.292 824.413C404.434 827.429 385.103 855.246 377.5 867.284C374.745 871.646 350.256 907.615 333.057 932.562C329.726 937.394 325.425 943.956 323.5 947.144C321.575 950.332 318.537 954.768 316.75 957.002C314.963 959.236 313.5 961.332 313.5 961.659C313.5 961.986 311.39 965.029 308.81 968.42C304.08 974.64 297.169 984.656 286.83 1000.28C283.736 1004.95 280.933 1009 280.602 1009.28C280.271 1009.55 279.55 1010.52 279 1011.42C278.45 1012.33 276.605 1015.03 274.9 1017.42C265.375 1030.8 245.5 1060.27 245.5 1061.02C245.5 1061.37 244.597 1062.61 243.493 1063.78C241.484 1065.92 235.755 1073.96 228.894 1084.28C226.881 1087.3 224.946 1090 224.594 1090.28C223.842 1090.86 221.242 1094.77 215 1104.68C213.35 1107.3 210.174 1112 207.941 1115.11C205.709 1118.23 200.375 1125.95 196.087 1132.28C191.799 1138.6 187.737 1144.23 187.059 1144.78C186.382 1145.33 184.651 1147.65 183.212 1149.93C179.733 1155.45 165.191 1175.91 161.74 1180.13C154.471 1189.02 151.539 1197.31 155.17 1198.7C157.841 1199.73 278.901 1199.35 286.348 1198.3C294.439 1197.15 307.153 1190.99 312.789 1185.48C320.381 1178.06 339.5 1153.67 339.5 1151.41C339.5 1150.92 341.412 1148 343.75 1144.92C347.824 1139.55 363.922 1116.82 366 1113.5C366.55 1112.63 369.475 1108.39 372.5 1104.1C375.525 1099.8 379.8 1093.31 382 1089.66C384.2 1086.02 387.463 1081.35 389.25 1079.29C391.037 1077.22 392.5 1075.26 392.5 1074.92C392.5 1074.58 393.16 1073.51 393.966 1072.54C396.225 1069.82 400.307 1064.09 402.249 1060.9C403.212 1059.32 405.688 1055.85 407.75 1053.18C409.813 1050.52 411.5 1047.97 411.5 1047.51C411.5 1047.06 413.678 1044.11 416.341 1040.96C419.004 1037.81 421.816 1034.02 422.591 1032.54C424.047 1029.75 430.531 1019.97 439.006 1007.78C441.682 1003.93 444.791 999.426 445.917 997.776C447.042 996.126 450.293 991.626 453.142 987.776C455.991 983.926 459.149 979.386 460.161 977.687C463.418 972.218 467.73 965.879 470.984 961.776C472.729 959.576 475.42 955.566 476.965 952.865C478.509 950.165 482.749 944.165 486.386 939.533C490.024 934.9 493.455 930.36 494.011 929.443C496.096 926.003 502.628 916.049 503.531 914.934C507.648 909.854 509.821 906.864 513.817 900.776C519.595 891.975 526.72 881.67 532.832 873.276C535.435 869.701 540.138 862.994 543.282 858.372C546.427 853.749 549.9 848.735 551 847.228C552.1 845.722 556.63 839.154 561.067 832.633C565.504 826.111 570.738 818.493 572.7 815.703C574.661 812.913 576.977 809.255 577.846 807.574C578.715 805.893 582.785 800.005 586.89 794.489C590.994 788.974 595.063 783.182 595.932 781.619C597.926 778.028 608.011 763.273 609.835 761.276C610.589 760.451 612.033 758.426 613.044 756.776C618.373 748.081 654 694.729 654.661 694.453C655.088 694.276 656.883 691.576 658.652 688.453C660.42 685.331 663.981 679.626 666.566 675.776C669.15 671.926 672.251 666.816 673.456 664.421C674.662 662.025 677.739 656.85 680.294 652.921C686.97 642.655 696.143 624.153 699.452 614.276C706.946 591.912 703.628 569.665 689.883 550.109C688.022 547.462 686.5 545.142 686.5 544.952C686.5 543.577 651.778 508.404 632.031 489.776C613.707 472.49 563.661 422.465 507.5 365.298C484.125 341.505 460.352 317.478 454.671 311.907C448.99 306.335 440.44 297.797 435.671 292.934C430.902 288.07 422.334 279.52 416.632 273.934C406.893 264.393 375.285 232.743 373.717 230.962C373.323 230.514 364.675 221.914 354.5 211.85C326.464 184.12 304.259 160.638 301.75 156.063C298.93 150.923 298.84 146.184 301.514 143.763C303.058 142.366 306.153 141.738 314.764 141.076C331.02 139.825 1135.61 140.975 1142.53 142.259C1148.09 143.292 1152.48 146.824 1152.5 150.276C1152.51 154.538 1147.02 165.786 1140.09 175.698C1137.75 179.045 1133.69 185.512 1131.06 190.068C1128.43 194.624 1125.74 198.897 1125.07 199.564C1124.41 200.231 1122.55 202.953 1120.94 205.614C1119.32 208.275 1117.32 211.466 1116.5 212.705C1115.68 213.944 1113.72 216.941 1112.16 219.366C1110.59 221.792 1108.07 225.576 1106.54 227.776C1105.02 229.976 1102.7 233.75 1101.38 236.162C1097.55 243.224 1096.74 244.511 1095.73 245.161C1095.2 245.499 1093.75 247.787 1092.5 250.245C1091.26 252.703 1089.45 255.853 1088.5 257.245C1087.55 258.637 1084.17 263.826 1081 268.776C1077.83 273.726 1073.49 280.378 1071.37 283.557C1069.24 286.737 1067.5 289.593 1067.5 289.903C1067.5 290.214 1065.03 294.226 1062 298.819C1058.97 303.413 1056.5 307.424 1056.5 307.733C1056.5 308.041 1054.1 312.003 1051.16 316.535C1048.22 321.068 1044.54 327.026 1042.97 329.776C1041.41 332.526 1037.85 338.376 1035.06 342.777C1032.28 347.178 1029.46 351.678 1028.79 352.777C1025.64 358.017 1020.66 366.143 1011.35 381.276C1005.77 390.351 998.299 402.726 994.754 408.776C991.209 414.826 987.727 420.451 987.016 421.276C985.874 422.601 982.056 429.286 973.426 445.069C972.011 447.658 969.895 451.351 968.724 453.276C967.554 455.201 965.182 459.461 963.454 462.742C961.725 466.023 959.679 469.611 958.905 470.714C957.104 473.287 957.088 479.689 958.88 481.177C959.898 482.021 1002.09 482.468 1119.63 482.878C1296.43 483.495 1287.39 483.132 1291.5 489.782C1295.48 496.22 1293.78 505.757 1287.41 512.776C1286.41 513.876 1283.66 517.069 1281.3 519.872C1276.53 525.525 1259.81 544.025 1255.05 548.906C1250 554.091 1243.39 561.343 1236.03 569.784C1232.2 574.179 1226.72 580.251 1223.86 583.276C1220.99 586.301 1216.93 590.623 1214.82 592.881C1195.24 613.897 1176.62 633.538 1157.5 653.358C1153.38 657.633 1147.3 664.116 1144 667.764C1138.39 673.972 1116.97 696.603 1108 705.811C1099.75 714.28 1076.54 738.96 1072.35 743.72C1069.96 746.439 1064.4 752.528 1060 757.251C1055.6 761.974 1047.95 770.26 1043 775.665C1038.05 781.069 1033.3 786.23 1032.44 787.134C1031.58 788.037 1025.52 794.626 1018.98 801.776C1007.25 814.602 1003.04 819.1 984.341 838.776C979.114 844.276 970.824 853.015 965.919 858.195C961.013 863.376 955.2 869.48 953 871.76C950.8 874.039 939.325 885.966 927.5 898.264C915.675 910.562 904.391 922.233 902.423 924.2C900.456 926.167 896.216 930.701 893 934.276C889.784 937.851 879.468 948.844 870.076 958.706C847.336 982.582 836.139 994.4 829.5 1001.53C826.475 1004.78 820.625 1010.9 816.5 1015.13C812.375 1019.35 803.6 1028.62 797 1035.71C790.4 1042.81 780.237 1053.61 774.416 1059.7C768.595 1065.79 761.17 1073.75 757.916 1077.38C754.662 1081.01 748.625 1087.74 744.5 1092.34C740.375 1096.94 732.5 1105.45 727 1111.25C714.496 1124.44 703.058 1136.75 694 1146.78C686.336 1155.26 673.828 1167.95 662.596 1178.64C651.697 1189.01 647.644 1196.9 652.25 1198.78C654.824 1199.83 769.164 1199.41 781.742 1198.3C787.65 1197.78 793.275 1196.93 794.242 1196.42C795.209 1195.9 799.492 1194.34 803.759 1192.95C810.993 1190.59 820.482 1185.26 836.716 1174.44C849.554 1165.89 878.933 1136.62 912.169 1099.28C918.777 1091.85 928.161 1081.73 933.023 1076.78C942.338 1067.29 943.56 1065.93 958.18 1048.63C963.229 1042.66 970.429 1034.77 974.18 1031.09C981.906 1023.52 984.958 1020.27 998.905 1004.78C1004.35 998.727 1014.48 987.911 1021.41 980.743C1028.33 973.575 1035.8 965.623 1038 963.071C1040.2 960.52 1047.43 952.66 1054.06 945.604C1060.69 938.549 1070.1 928.276 1074.98 922.776C1079.85 917.276 1086.12 910.508 1088.92 907.736C1091.71 904.964 1095.51 900.914 1097.36 898.736C1102.17 893.077 1126.6 866.801 1142.25 850.452C1144.59 848.011 1146.5 845.644 1146.5 845.194C1146.5 844.744 1147.12 844.016 1147.88 843.576C1150.03 842.333 1174.05 816.732 1190.29 798.37C1191.56 796.943 1198.77 789.251 1206.34 781.276C1213.9 773.301 1222.53 764.076 1225.52 760.776C1228.51 757.476 1234.62 750.951 1239.11 746.276C1243.59 741.601 1253.67 730.576 1261.51 721.776C1276.39 705.071 1291.24 689.001 1305.29 674.392C1309.85 669.653 1315.92 663.111 1318.79 659.853C1332.23 644.579 1350.78 624.368 1361.5 613.312C1370.29 604.246 1385.67 588.058 1392.4 580.776C1396.46 576.376 1404.14 568.276 1409.46 562.776C1420.69 551.16 1431.79 539.248 1439.29 530.76C1442.2 527.469 1446.41 522.769 1448.66 520.317C1450.91 517.864 1453.88 514.152 1455.26 512.067C1456.64 509.982 1458.16 508.276 1458.63 508.276C1459.11 508.276 1459.5 507.862 1459.5 507.355C1459.5 506.849 1461.19 504.652 1463.25 502.473C1465.31 500.294 1468.45 496.546 1470.21 494.144C1471.98 491.741 1474.56 488.426 1475.94 486.776C1479.29 482.793 1479.31 482.765 1484.75 475.276C1496.25 459.451 1501.39 451.119 1508.54 436.677C1515.62 422.38 1519.48 407.62 1519.49 394.72C1519.51 379.276 1512.66 365.532 1502.27 360.179C1492.71 355.253 1493.41 355.276 1355.19 355.27C1270.94 355.267 1224.73 354.912 1222.35 354.251C1220.22 353.658 1217.2 351.579 1215.1 349.253C1210.42 344.076 1210.39 340.432 1214.97 330.96C1218.64 323.369 1219.63 321.644 1226.24 311.276C1228.52 307.701 1232.52 301.401 1235.13 297.276C1244.77 282.01 1249.52 274.674 1252.31 270.776C1253.88 268.576 1258.05 262.501 1261.57 257.276C1265.09 252.051 1270.93 243.951 1274.55 239.276C1278.17 234.601 1282.2 228.976 1283.51 226.776C1284.81 224.576 1291.53 214.301 1298.44 203.943C1305.35 193.585 1311.47 184.283 1312.05 183.272C1313.07 181.492 1322.85 166.719 1337.09 145.458C1344.55 134.326 1345.26 133.093 1348.26 126.276C1349.34 123.801 1351.87 119.635 1353.87 117.017C1355.86 114.4 1357.5 111.7 1357.5 111.017C1357.5 110.335 1358.89 107.147 1360.58 103.934C1365.08 95.402 1367.39 88.156 1369.54 75.776C1371.91 62.193 1371.95 57.562 1369.83 47.052C1368.59 40.877 1367.07 37.015 1363.83 31.781C1361.44 27.928 1358.95 23.539 1358.28 22.026C1357.61 20.513 1356.56 19.276 1355.94 19.276C1355.32 19.276 1353.99 18.37 1352.99 17.262C1350.22 14.208 1341.68 8.96702 1335.3 6.41102C1326.89 3.03902 1315.95 1.39404 1298 0.801037C1269.5 -0.140963 1023.52 -0.24798 513 0.45802Z" fill="#7700C4"/>
</svg>
